<svg xmlns="http://www.w3.org/2000/svg" viewBox="0 0 31.7 31.71"><defs><style>.cls-1{fill:#ddd;}</style></defs><g id="Layer_2" data-name="Layer 2"><g id="Vector_Graphics" data-name="Vector Graphics"><path class="cls-1" d="M25.74,20.61l0-2.62a.8.8,0,0,0-.24-.56.84.84,0,0,0-.58-.24H18a.78.78,0,0,0-.8.8v7a.78.78,0,0,0,.8.8l2.39,0-4.69,5.87-4.64-6,2.61,0a.86.86,0,0,0,.56-.22.77.77,0,0,0,.26-.58V18a.82.82,0,0,0-.82-.83h-7a.8.8,0,0,0-.79.83l0,2.4L0,15.72l6-4.65,0,2.62a.68.68,0,0,0,.21.56.85.85,0,0,0,.59.24h6.92a.79.79,0,0,0,.8-.8v-7a.83.83,0,0,0-.8-.83l-2.4,0L16,0l4.67,6L18,5.93a1,1,0,0,0-.56.24.77.77,0,0,0-.26.58v6.92a.82.82,0,0,0,.82.82h7a.84.84,0,0,0,.82-.82l0-2.4L31.7,16Z"/></g></g></svg>