<svg xmlns="http://www.w3.org/2000/svg" xmlns:xlink="http://www.w3.org/1999/xlink" viewBox="0 0 33.07 31.73"><defs><style>.cls-1{fill:#ddd;stroke:#767677;stroke-linecap:round;stroke-linejoin:round;stroke-width:0.25px;}.cls-2{fill:#323233;}.cls-3{fill:url(#linear-gradient);}.cls-4{fill:url(#linear-gradient-2);}.cls-5{fill:#424143;}</style><linearGradient id="linear-gradient" x1="387.6" y1="-1144.81" x2="408.87" y2="-1144.62" gradientTransform="translate(-1088.56 419.02) rotate(45) scale(1.25 0.93)" gradientUnits="userSpaceOnUse"><stop offset="0.08" stop-color="#595a5c"/><stop offset="0.3" stop-color="#595959"/><stop offset="0.32" stop-color="#636363"/><stop offset="0.35" stop-color="#7d7d7d"/><stop offset="0.36" stop-color="#878787"/><stop offset="0.38" stop-color="#7d7d7e"/><stop offset="0.39" stop-color="#767677"/><stop offset="0.4" stop-color="#6c6c6d"/><stop offset="0.42" stop-color="#535353"/><stop offset="0.42" stop-color="#525252"/><stop offset="0.45" stop-color="#494849"/><stop offset="0.47" stop-color="#424143"/></linearGradient><linearGradient id="linear-gradient-2" x1="388.46" y1="226.01" x2="406.61" y2="244.8" gradientTransform="translate(-294.67 -375.16) rotate(45) scale(1.25 0.17)" gradientUnits="userSpaceOnUse"><stop offset="0.08" stop-color="#595a5c"/><stop offset="0.19" stop-color="#595959"/><stop offset="0.22" stop-color="#636363"/><stop offset="0.26" stop-color="#7d7d7d"/><stop offset="0.28" stop-color="#878787"/><stop offset="0.35" stop-color="#7d7d7e"/><stop offset="0.39" stop-color="#767677"/><stop offset="0.41" stop-color="#6c6c6d"/><stop offset="0.45" stop-color="#535353"/><stop offset="0.45" stop-color="#525252"/><stop offset="0.55" stop-color="#494849"/><stop offset="0.61" stop-color="#424143"/></linearGradient></defs><g id="Layer_2" data-name="Layer 2"><g id="Vector_Graphics" data-name="Vector Graphics"><path class="cls-1" d="M.53,31.32,6.12,21.09S9.8,24.64,11.93,27C5.86,29.11.53,31.32.53,31.32Z"/><polygon class="cls-2" points="2.27 27.61 4.36 30.08 0.44 31.73 0 31.63 2.27 27.61"/><polygon class="cls-3" points="30.12 9.11 23.85 2.85 6.01 21.02 12.09 27.17 30.12 9.11"/><path class="cls-4" d="M23.66,3.31,26.84.14a8.33,8.33,0,0,1,6.1,6.09q-1.6,1.59-3.18,3.18Z"/><path class="cls-5" d="M26.88.28A8.19,8.19,0,0,1,32.8,6.19l-3,3L26,5.49,23.84,3.31l2.08-2.07,1-1M26.8,0,23.49,3.31l6.27,6.28,3.31-3.32A8.48,8.48,0,0,0,26.8,0Z"/></g></g></svg>