<?xml version="1.0" encoding="utf-8"?>
<!-- Generator: Adobe Illustrator 24.2.3, SVG Export Plug-In . SVG Version: 6.00 Build 0)  -->
<svg version="1.1" id="Layer_1" xmlns="http://www.w3.org/2000/svg" xmlns:xlink="http://www.w3.org/1999/xlink" x="0px" y="0px"
	 viewBox="0 0 4000 2000" style="enable-background:new 0 0 4000 2000;" xml:space="preserve">
<style type="text/css">
	.st0{fill:#FFFFFF;}
</style>
<g>
	<g>
		<path class="st0" d="M2225.2,17.6c-417.3,0-756.9,339.6-756.9,756.9c0,187.3,68.8,358.7,181.8,491.1l-615.1,615.1
			c-23.3,23.3-23.3,61,0,84.2c11.5,11.5,26.9,17.5,42.1,17.5c15.2,0,30.3-5.8,42.1-17.5l615.1-615.1
			c132.4,113,303.8,181.8,491.1,181.8c417.3,0,756.9-339.6,756.9-756.9S2642.8,17.6,2225.2,17.6z M2225.2,1412.6
			c-351.9,0-638.1-286.2-638.1-638.1s286.2-637.9,638.1-637.9s638.1,286.2,638.1,638.1S2577.1,1412.6,2225.2,1412.6z"/>
		<path class="st0" d="M2553.6,715.1h-269v-269c0-33-26.7-59.4-59.4-59.4c-32.7,0-59.4,26.7-59.4,59.4v269h-269
			c-33,0-59.4,26.7-59.4,59.4c0,33,26.7,59.4,59.4,59.4h269v269c0,33,26.7,59.4,59.4,59.4c32.7,0,59.4-26.7,59.4-59.4V834.1h269
			c33,0,59.4-26.7,59.4-59.4C2613.2,741.8,2586.5,715.1,2553.6,715.1z"/>
	</g>
</g>
</svg>
