<?xml version="1.0" encoding="utf-8"?>
<!-- Generator: Adobe Illustrator 24.2.3, SVG Export Plug-In . SVG Version: 6.00 Build 0)  -->
<svg version="1.1" id="Capa_1" xmlns="http://www.w3.org/2000/svg" xmlns:xlink="http://www.w3.org/1999/xlink" x="0px" y="0px"
	 viewBox="0 0 800 800" style="enable-background:new 0 0 800 800;" xml:space="preserve">
<style type="text/css">
	.st0{fill:none;}
</style>
<g>
	<path class="st0" d="M400,54.8c190.4,0,345.2,154.9,345.2,345.2c0,190.4-154.9,345.2-345.2,345.2C209.6,745.2,54.8,590.4,54.8,400
		C54.8,209.6,209.6,54.8,400,54.8z"/>
	<path d="M300.8,721.3c20.1,20.1,52.7,20.1,72.8,0c20.1-20.1,20.1-52.7,0-72.8L175.8,450.7l572.8-0.1c28.4,0,51.5-23,51.5-51.5
		c0-28.4-23-51.5-51.5-51.5l-572.8,0.1l197.8-197.8c20.1-20.1,20.1-52.7,0-72.8c-10.1-10-23.2-15.1-36.4-15.1
		c-13.2,0-26.3,5-36.4,15.1L15.1,362.8C5.4,372.5,0,385.6,0,399.2c0,13.7,5.4,26.7,15.1,36.4L300.8,721.3z"/>
</g>
</svg>
