<?xml version="1.0" encoding="utf-8"?><!-- Generator: Adobe Illustrator 24.2.3, SVG Export Plug-In . SVG Version: 6.00 Build 0)  --><svg version="1.1" id="Layer_1" xmlns="http://www.w3.org/2000/svg" xmlns:xlink="http://www.w3.org/1999/xlink" x="0px" y="0px"viewBox="0 0 256 256" style="enable-background:new 0 0 256 256;" xml:space="preserve"><style type="text/css">.st0{fill:none;stroke:#FFFFFF;stroke-width:4;stroke-miterlimit:10;}</style><g transform="translate(1.4065934065934016 1.4065934065934016) scale(2.81 2.81)"><path class="st0" d="M31.1,19.2c-3.3,0-6.4,1.3-8.7,3.6s-3.6,5.4-3.6,8.7s1.3,6.4,3.6,8.7l22.6,22.6l22.6-22.6c2.3-2.3,3.6-5.4,3.6-8.7s-1.3-6.4-3.6-8.7l0,0c-2.3-2.3-5.4-3.6-8.7-3.6c-3.3,0-6.4,1.3-8.7,3.6l-5.2,5.2l-5.2-5.2C37.5,20.5,34.4,19.2,31.1,19.2z"/></g></svg>
