<?xml version="1.0" encoding="UTF-8"?><svg width="700pt" style="fill:#fff;" height="700pt" version="1.1" viewBox="0 0 700 700" xmlns="http://www.w3.org/2000/svg" xmlns:xlink="http://www.w3.org/1999/xlink"><g><path d="m141.36 393.21v-13.227l69.887-83.797c4.4766-5.3672 12.727-5.3672 17.203 0l44.195 52.992c4.4766 5.3672 12.727 5.3672 17.203 0l93.996-112.71c4.4766-5.3672 12.727-5.3672 17.203 0l70.59 84.645 29.336-29.34-0.003906-215.16c0-13.895-11.305-25.199-25.199-25.199h-337.21c-13.895 0-25.199 11.305-25.199 25.199v319.39c0 13.895 11.305 25.199 25.199 25.199h236.34c1.4062-3.5781 3.4922-6.8594 6.2227-9.5898l18.41-18.41zm86.781-269.5c23.535 0 42.613 19.078 42.613 42.613 0 23.535-19.078 42.613-42.613 42.613-23.535 0-42.613-19.078-42.613-42.613 0-23.535 19.078-42.613 42.613-42.613zm168.23 322.94 47.227 47.23-47.488 14.199c-1.1055 0.33203-2.1992 0.48438-3.2617 0.48438-7.1562 0-12.898-6.9922-10.676-14.426zm187-81.855-114.81 114.81c-0.46875-0.67188-0.97656-1.3281-1.5781-1.9297l-56.156-56.16 114.63-114.63c2.1875-2.1875 5.0547-3.2812 7.918-3.2812 2.8672 0 5.7344 1.0938 7.918 3.2812l42.074 42.074c4.3789 4.3711 4.3789 11.461 0.003906 15.836z"/></g></svg>