<?xml version="1.0" encoding="UTF-8"?><svg width="700pt" height="700pt" version="1.1" viewBox="0 0 700 700" xmlns="http://www.w3.org/2000/svg" xmlns:xlink="http://www.w3.org/1999/xlink"><g><path style="fill:#fff;" d="m513.33 455h-31.406c48.859-39.48 78.074-99.121 78.074-163.33 0-115.78-94.219-210-210-210s-210 94.172-210 210c0 6.4414 5.2266 11.668 11.668 11.668 6.4414 0 11.668-5.2266 11.668-11.668 0-102.95 83.719-186.67 186.67-186.67 102.95 0 186.67 83.719 186.67 186.67 0 62.301-30.895 119.65-81.668 154.23l-0.003906-49.234c0-6.4414-5.2266-11.668-11.668-11.668-6.4414 0-11.668 5.2266-11.668 11.668v70c0 0.23438 0.09375 0.375 0.14063 0.60547 0.046874 0.69922 0.23437 1.3516 0.42187 2.0547 0.1875 0.83984 0.375 1.6328 0.69922 2.3789 0.09375 0.14062 0.046875 0.32812 0.14062 0.46484 0.55859 1.0273 1.2148 1.9141 2.0078 2.707 0.046875 0.046875 0.09375 0.046875 0.09375 0.09375 0.93359 0.93359 2.0547 1.6328 3.2656 2.1914 0.23438 0.14063 0.51172 0.23438 0.74609 0.32813 1.3516 0.51172 2.707 0.88672 4.1523 0.88672 0.09375 0 0.1875-0.046875 0.28125-0.046875h69.719c6.4414 0 11.668-5.2266 11.668-11.668 0-6.4375-5.2266-11.664-11.668-11.664z"/><path  style="fill:#fff;" d="m350 245c-25.762 0-46.668 20.953-46.668 46.668 0 25.715 20.906 46.668 46.668 46.668s46.668-20.953 46.668-46.668c0-25.715-20.906-46.668-46.668-46.668zm0 70c-12.879 0-23.332-10.453-23.332-23.332 0-12.879 10.453-23.332 23.332-23.332s23.332 10.453 23.332 23.332c0 12.879-10.453 23.332-23.332 23.332z"/></g></svg>