<?xml version="1.0" encoding="utf-8"?>
<!-- Generator: Adobe Illustrator 24.2.3, SVG Export Plug-In . SVG Version: 6.00 Build 0)  -->
<svg version="1.1" id="Layer_1" xmlns="http://www.w3.org/2000/svg" xmlns:xlink="http://www.w3.org/1999/xlink" x="0px" y="0px"
	 viewBox="0 0 1000 1000" style="enable-background:new 0 0 1000 1000;" xml:space="preserve">
<style type="text/css">
	.st0{fill:#FFFFFF;stroke:#FFFFFF;stroke-miterlimit:10;}
</style>
<g>
	<g>
		<path class="st0" d="M959.9,196c-25.9-13.9-81.7-41.4-82.1-40.6c-60.3,106.8-120.7,213.5-181,320.4c-1.4,2.4-2.8,3.3-5.7,3.3
			c-109.2-0.1-218.3-0.1-327.5,0c-3.1,0-4.5-1-5.9-3.7C295.2,346.6,232.6,217.7,170.1,88.8c-4.7-9.7-9.2-19.5-13.9-29.2H0v93.3
			c31,0,61.8,0,92.8-0.1c2.3,0,3.2,0.8,4.1,2.7C153,271.2,209.3,386.9,265.6,502.6c24.6,25,52.9,45.9,78.5,69.8
			c116.4,0.1,232.7,0.1,349,0c5.2,0,10.6-0.2,15.8-1c31.2-5,55-21,70.6-48.7c53.5-94.7,106.9-189.4,160.4-284.2
			C947.5,224.9,960.9,196.5,959.9,196z"/>
		<polygon class="st0" points="959.9,196 877.8,155.4 885.8,132.6 972.7,172.8 996.7,132.6 906.5,83.9 885.8,132.6 		"/>
	</g>
	<polyline class="st0" points="265.6,502.6 286.8,572.4 740.6,572.4 779.5,522.6 	"/>
	<path class="st0" d="M960,183.5l12.7-10.8L960,183.5z"/>
	<path class="st0" d="M959.9,196l0.1-12.5l12.7-10.8l-86.8-40.2c6.9-16.2,13.8-32.5,20.6-48.7"/>
	<polyline class="st0" points="906.9,183.5 885.8,132.6 972.7,172.8 959.1,199 996.7,132.6 955.7,206.7 	"/>
	<line class="st0" x1="993.9" y1="136.5" x2="959.4" y2="197.4"/>
	<path class="st0" d="M349.1,777.4c-5.6-1-11.3-1.6-16.7-3.3c-36.1-11-59.1-34.7-65.6-72.1c-6.9-39.7,14.2-77.6,50.8-94.7
		c51.1-23.9,112.3,3.8,127.4,57.6c11.8,41.9-9.9,86.4-50.8,104.6c-9,4-18.5,6.5-28.3,7.4c-0.7,0.1-1.3,0.3-2.1,0.5
		C358.9,777.4,354,777.4,349.1,777.4z"/>
	<path class="st0" d="M680.6,777.3c-5.6-1-11.4-1.8-16.9-3.2c-34.7-9.1-61.4-39.1-66-74c-5.2-38.8,15.3-76,51.1-92.7
		c51.5-24.2,113.1,3.9,127.8,58.3c11.2,41.2-10,84.9-50,103.3c-9.4,4.3-19.2,7-29.5,8c-0.6,0.1-1.1,0.3-1.8,0.5
		C690.5,777.3,685.6,777.3,680.6,777.3z"/>
</g>
</svg>
